<svg xmlns="http://www.w3.org/2000/svg" width="326.315" height="308.134" viewBox="0 0 326.315 308.134"><defs><style>.a{fill:#4db4f5;opacity:0.07;}.b{fill:#f4f9fc;}.c{fill:#2a2729;}.d{fill:#e4ecf2;}.e{fill:none;stroke:#2a2729;stroke-linecap:round;stroke-miterlimit:10;stroke-width:2px;}.f{fill:#f1675f;}.g{fill:#9ad9ef;}.h{fill:#efbd1b;}.i{opacity:0.05;}</style></defs><path class="a" d="M22.632,93.243C33.8,68.165,52.653,45.1,73.887,29.907,111.963,2.632,165.964-3.043,210.08,10.5c28.373,8.6,57.3,27.458,67.364,56.564,10.8,31.3-3.844,66.083-20.136,92.625-13.363,21.967-26.36,43.933-39.357,66.083-11.715,20.136-22.333,41.919-39.174,58.211-11.166,10.8-26.177,19.038-42.1,20.868-22.882,2.746-43.933-11.166-60.225-25.445-17.39-15.194-32.584-32.035-43.018-52.9C17.14,194.655,7.438,157.678,13.662,121.8A125.328,125.328,0,0,1,22.632,93.243Z" transform="translate(9.828 2.931)"/><path class="a" d="M268.63,74.535a163.962,163.962,0,0,0-20.136-11.349c-22.882-10.983-45.947-21.967-68.828-32.95C153.672,17.971,126.58,1.313,97.108.032,79.9-.7,61.779,4.242,48.965,16.141,36.334,27.673,29.2,44.331,24.8,60.44c-4.393,16.658-9.7,36.611-9.7,53.818,0,37.709,9.7,78.164,37.343,105.439,27.275,26.909,63.52,43.75,102.327,43.933,39.357.183,80.91-17.207,109.65-43.75,26.36-24.163,47.777-60.591,39.174-97.385C298.468,100.529,285.471,85.7,268.63,74.535Z" transform="translate(12.601 0.039)"/><path class="a" d="M.027,124.88C.942,93.029,10.644,51.11,37.736,30.607,62.082,12.3,98.144,10.288,126.152,21.089c35.879,13.729,71.94,27.641,107.819,41.37,22.7,8.787,44.3,20.5,62.055,37.16a107.19,107.19,0,0,1,25.994,37.709c15.01,38.075-12.265,74.32-40.638,96.836-62.788,49.425-155.047,59.676-224.425,17.573A103.011,103.011,0,0,1,17.051,208.17C5.336,183.824-.705,154.169.027,124.88Z" transform="translate(0.033 12.115)"/><g transform="translate(88.841 54.072)"><path class="b" d="M61.4,247.419a11.875,11.875,0,0,1-11.9-11.9V42.4A11.875,11.875,0,0,1,61.4,30.5H201.984a11.875,11.875,0,0,1,11.9,11.9V235.521a11.875,11.875,0,0,1-11.9,11.9Z" transform="translate(-47.669 -28.669)"/><path class="c" d="M203,33.161a10.157,10.157,0,0,1,10.068,10.068V236.351A10.157,10.157,0,0,1,203,246.419H62.229a10.157,10.157,0,0,1-10.068-10.068V43.229A10.157,10.157,0,0,1,62.229,33.161H203m0-3.661H62.229A13.829,13.829,0,0,0,48.5,43.229V236.351A13.829,13.829,0,0,0,62.229,250.08H202.815a13.829,13.829,0,0,0,13.729-13.729V43.229A13.555,13.555,0,0,0,203,29.5Z" transform="translate(-48.5 -29.5)"/></g><path class="d" d="M211.4,41.568V234.69a10.157,10.157,0,0,1-10.068,10.068H60.568A10.157,10.157,0,0,1,50.5,234.69v-1.464H179.553a10.157,10.157,0,0,0,10.068-10.068V31.5h11.532A10.08,10.08,0,0,1,211.4,41.568Z" transform="translate(42.002 26.233)"/><g transform="translate(114.286 99.469)"><path class="e" d="M79.424,82.49H73.566A11.211,11.211,0,0,1,62.4,71.324V65.466A11.211,11.211,0,0,1,73.566,54.3h5.858A11.211,11.211,0,0,1,90.59,65.466v5.858A11.457,11.457,0,0,1,79.424,82.49Z" transform="translate(-62.4 -54.3)"/><line class="e" x2="61.872" transform="translate(40.089 14.827)"/></g><g transform="translate(114.286 143.768)"><path class="e" d="M79.424,106.69H73.566A11.211,11.211,0,0,1,62.4,95.524V89.666A11.211,11.211,0,0,1,73.566,78.5h5.858A11.211,11.211,0,0,1,90.59,89.666v5.858A11.457,11.457,0,0,1,79.424,106.69Z" transform="translate(-62.4 -78.5)"/><line class="e" x2="61.872" transform="translate(40.089 14.827)"/></g><g transform="translate(114.286 188.067)"><path class="e" d="M79.424,130.89H73.566A11.211,11.211,0,0,1,62.4,119.724v-5.858A11.211,11.211,0,0,1,73.566,102.7h5.858A11.211,11.211,0,0,1,90.59,113.866v5.858A11.331,11.331,0,0,1,79.424,130.89Z" transform="translate(-62.4 -102.7)"/><line class="e" x2="61.872" transform="translate(40.089 14.827)"/></g><path class="f" d="M61.1,61.232,78.124,78.256s13.912-19.4,25.445-28.556L78.856,65.992Z" transform="translate(50.806 41.348)"/><path class="f" d="M61.1,83.132l17.024,17.024s13.912-19.4,25.445-28.556L78.856,87.892Z" transform="translate(50.806 59.537)"/><path class="f" d="M61.1,108.532l17.024,17.024S92.036,106.153,103.569,97L78.856,113.292Z" transform="translate(50.806 80.633)"/><g transform="translate(123.438 38.695)"><path class="g" d="M80.848,52.67A12.46,12.46,0,0,1,68.4,40.222V34.548A12.46,12.46,0,0,1,80.848,22.1h70.659a12.46,12.46,0,0,1,12.448,12.448v5.675A12.46,12.46,0,0,1,151.507,52.67Z" transform="translate(-66.569 -20.269)"/><path class="c" d="M152.154,24.761a10.625,10.625,0,0,1,10.617,10.617v5.675A10.625,10.625,0,0,1,152.154,51.67H81.678A10.625,10.625,0,0,1,71.061,41.053V35.378A10.625,10.625,0,0,1,81.678,24.761h70.476m0-3.661H81.678A14.3,14.3,0,0,0,67.4,35.378v5.675A14.3,14.3,0,0,0,81.678,55.331h70.659a14.3,14.3,0,0,0,14.278-14.278V35.378A14.337,14.337,0,0,0,152.154,21.1Z" transform="translate(-67.4 -21.1)"/></g><path class="h" d="M159.578,43.8l1.648,6.224a9.392,9.392,0,0,0,6.407,6.407l6.224,1.647-6.224,1.647a9.391,9.391,0,0,0-6.407,6.407l-1.648,6.224-1.647-6.224a9.392,9.392,0,0,0-6.407-6.407L145.3,58.078l6.224-1.647a9.392,9.392,0,0,0,6.407-6.407Z" transform="translate(120.738 36.448)"/><path class="h" d="M36.461,64.7l1.647,6.224a9.392,9.392,0,0,0,6.407,6.407l6.224,1.647-6.224,1.647a9.392,9.392,0,0,0-6.407,6.407l-1.647,6.224-1.831-6.041a9.392,9.392,0,0,0-6.407-6.407L22,79.161l6.224-1.647a9.392,9.392,0,0,0,6.407-6.407Z" transform="translate(18.332 53.807)"/><path class="h" d="M163.678,99.4l1.647,6.224a9.392,9.392,0,0,0,6.407,6.407l6.224,1.647-6.224,1.647a9.392,9.392,0,0,0-6.407,6.407l-1.647,6.224-1.647-6.224a9.391,9.391,0,0,0-6.407-6.407l-6.224-1.647,6.224-1.647a9.392,9.392,0,0,0,6.407-6.407Z" transform="translate(124.143 82.626)"/><path class="h" d="M58.241,4.5l2.014,7.322a10.707,10.707,0,0,0,7.505,7.505l7.322,2.014L67.76,23.355a10.707,10.707,0,0,0-7.505,7.505l-2.014,7.322L56.227,30.86a10.707,10.707,0,0,0-7.505-7.505L41.4,21.341l7.322-2.014a10.707,10.707,0,0,0,7.505-7.505Z" transform="translate(34.444 3.808)"/><g transform="translate(194.646 88.303)"><path class="b" d="M110.412,174.626,107.3,143.141,170.637,49.6l35.513,23.98-63.337,93.541-32.218,10.068Z" transform="translate(-105.469 -47.037)"/><path class="c" d="M172.017,53.326l32.4,21.967-62.055,91.527-29.289,9.336v-.183l-3.112-30.936,62.055-91.71M171.1,48.2l-2.014,3.112-62.055,91.527-.732,1.1.183,1.281,2.929,30.753v.183l.366,4.576,4.393-1.464,29.289-9.336,1.281-.366.732-1.1L207.529,76.94l2.014-3.112-3.112-2.014-32.4-21.967L171.1,48.2Z" transform="translate(-106.3 -48.2)"/></g><g transform="translate(252.126 79.333)"><path class="g" d="M139.1,61.69l5.675-8.42a20.2,20.2,0,0,1,16.841-8.97,20.724,20.724,0,0,1,11.349,3.478l1.647,1.1,2.746,2.2A20.3,20.3,0,0,1,180.1,77.067l-5.675,8.421Z" transform="translate(-136.537 -42.469)"/><path class="c" d="M162.778,46.961a19.8,19.8,0,0,1,10.434,3.112l1.647,1.1a12.6,12.6,0,0,1,2.38,2.014,18.583,18.583,0,0,1,2.563,23.8l-4.759,6.956-32.4-21.967,4.759-6.956a18.619,18.619,0,0,1,15.377-8.054m0-3.661h0A22.084,22.084,0,0,0,144.473,53l-4.759,6.956L137.7,63.07l3.112,2.014,32.4,21.967,3.112,2.014,2.014-3.112L183.1,79a22.232,22.232,0,0,0-2.929-28.373,18.482,18.482,0,0,0-2.929-2.38l-1.647-1.1A23.322,23.322,0,0,0,162.778,43.3Z" transform="translate(-137.7 -43.3)"/></g><g transform="translate(194.646 178.548)"><path class="b" d="M110.412,133.68,107.3,102.195l2.2-3.295,35.513,23.98-2.2,3.295-32.218,10.068Z" transform="translate(-105.469 -96.337)"/><path class="c" d="M110.876,102.626l32.4,21.967-.732,1.1-29.289,9.336v-.183l-3.112-30.936.732-1.281m-1.1-5.126-2.014,3.112-.732,1.1-.732,1.1.183,1.281,2.929,30.936v.183l.366,4.576,4.393-1.464,29.289-9.336,1.281-.366.732-1.1.732-1.1,2.014-3.112-3.112-2.014-32.4-21.967L109.778,97.5Z" transform="translate(-106.3 -97.5)"/></g><path class="i" d="M202.992,72.414l-63.7,93.724L110,175.474v-.183l16.841-19.221,3.844-4.393L200.429,48.8A18.359,18.359,0,0,1,202.992,72.414Z" transform="translate(91.419 40.601)"/></svg>